<svg width="616" height="600" xmlns="http://www.w3.org/2000/svg">
 <metadata id="metadata8">image/svg+xml</metadata>
 <defs>
  <clipPath clipPathUnits="userSpaceOnUse" id="clipPath18">
   <path d="m-170.25,675.75l800,0l0,-600l-800,0l0,600z" id="path16"/>
  </clipPath>
 </defs>
 <g>
  <title>background</title>
  <rect fill="none" id="canvas_background" height="602" width="618" y="-1" x="-1"/>
 </g>
 <g>
  <title>Layer 1</title>
  <g id="g10" transform="matrix(1.3333333,0,0,-1.3333333,0,800) ">
   <g id="g12">
    <g id="g14" clip-path="url(#clipPath18)">
     <g id="g20">
      <path fill="#fdfefe" fill-rule="nonzero" d="m332.833008,410.141113c0,15.658 0.068,31.317 -0.028,46.975c-0.049,7.96 -5.145,12.968 -12.742,12.893c-7.355,-0.073 -12.249,-5.063 -12.382,-12.749c-0.081,-4.663 -0.017,-9.328 -0.017,-13.993c0,-26.486 -0.021,-52.972 0.017,-79.459c0.008,-6.241 3.783,-11.598 8.833,-12.873c8.407,-2.122 16.225,3.869 16.288,12.73c0.108,15.492 0.03,30.984 0.031,46.476m8.759,-19.883c-0.373,-24.97 20.327,-43.895 46.301,-41.291c23.908,2.396 39.412,20.324 38.641,45.596c-0.761,24.958 -19.438,42.077 -44.899,41.295c-23.959,-0.737 -40.807,-19.922 -40.043,-45.6m-69.304,37.115c-12.481,10.892 -26.265,11.561 -39.832,3.586c-16.342,-9.607 -22.42,-25.276 -20.344,-43.535c1.934,-16.997 9.266,-30.875 27.077,-36.654c11.102,-3.601 21.373,-2.308 30.479,5.074c2.352,1.906 3.073,1.542 4.759,-0.586c3.443,-4.348 8.816,-5.625 13.972,-3.872c4.92,1.672 8.284,5.858 8.316,11.318c0.119,19.989 0.216,39.982 -0.047,59.97c-0.105,7.987 -7.554,13.092 -15.41,11.491c-4.117,-0.839 -6.534,-3.727 -8.97,-6.792m-116,-52.636c1.658,2.177 2.636,3.499 3.653,4.789c13.098,16.617 26.22,33.215 39.292,49.851c3.808,4.847 7.623,9.731 10.017,15.477c2.749,6.599 -0.228,12.829 -6.989,15.164c-3.058,1.056 -6.232,1.137 -9.382,1.147c-17.831,0.059 -35.662,0.063 -53.492,-0.009c-2.474,-0.01 -5.034,-0.242 -7.402,-0.91c-5.012,-1.413 -7.971,-5.484 -7.931,-10.29c0.04,-4.796 3.09,-8.82 8.115,-10.138c2.382,-0.624 4.931,-0.823 7.406,-0.843c10.831,-0.086 21.664,-0.009 32.495,-0.077c1.166,-0.007 2.664,0.758 3.608,-0.948c-0.892,-1.168 -1.779,-2.358 -2.697,-3.524c-15.455,-19.638 -30.92,-39.266 -46.367,-58.91c-3.839,-4.882 -5.77,-10.263 -2.99,-16.259c2.773,-5.985 8.445,-7.132 14.246,-7.466c4.651,-0.269 9.328,-0.106 13.994,-0.106c16.164,0 32.329,-0.112 48.491,0.071c8.569,0.097 13.185,5.344 12.26,13.255c-0.73,6.249 -5.018,9.625 -12.951,9.692c-14.122,0.121 -28.244,0.034 -43.376,0.034m-72.47,-168.488c-1.766,0.753 -3.109,1.702 -0.968,3.459c1.28,1.052 2.738,1.889 4.134,2.795c13.057,8.476 25.349,17.816 33.453,31.494c6.773,11.431 5.689,18.096 -2.745,26.54c-47.363,47.422 -68.246,104.149 -57.825,171.099c5.887,37.826 23.214,70.475 48.354,98.878c15.179,17.148 33.285,31.07 53.088,42.687c1.169,0.685 2.944,0.863 3.155,2.644c-0.386,0.968 -1.155,0.682 -1.747,0.682c-33.664,0.006 -67.346,0.657 -100.988,-0.207c-32.118,-0.826 -59.982,-25.733 -59.909,-61.48c0.212,-104.326 -0.002,-208.654 -0.018,-312.981c-0.005,-32.35 24.69,-59.474 56.998,-60.733c27.283,-1.063 54.643,-0.165 81.97,-0.136c1.995,-0.064 3.99,-0.183 5.985,-0.184c48.163,-0.01 96.326,-0.009 144.489,-0.008c35.998,0.001 71.996,-0.144 107.992,0.051c33.851,0.185 60.434,27.121 60.466,60.885c0.02,19.499 0.018,38.998 -0.022,58.496c-0.003,1.419 0.484,2.939 -0.415,4.36c-1.756,-0.143 -2.462,-1.618 -3.447,-2.602c-19.596,-19.571 -42.069,-35.062 -67.361,-46.197c-61.51,-27.081 -124.137,-29.045 -187.559,-7.2c-5.805,2 -11.459,2.214 -17.167,0.749c-8.382,-2.151 -16.69,-4.611 -24.967,-7.145c-24.554,-7.519 -49.408,-10.967 -74.946,-5.946" id="path22"/>
     </g>
     <g id="g24">
      <path fill="#0180c7" fill-rule="nonzero" d="m140.769501,150.990196c-27.326,-0.029 -54.686,-0.927 -81.97,0.136c-32.308,1.259 -57.002,28.383 -56.997,60.733c0.015,104.327 0.23,208.654 0.017,312.981c-0.072,35.747 27.792,60.654 59.909,61.48c33.643,0.864 67.324,0.213 100.989,0.207c0.591,0 1.36,0.286 1.747,-0.682c-0.211,-1.781 -1.987,-1.959 -3.155,-2.645c-19.804,-11.616 -37.91,-25.538 -53.088,-42.687c-25.141,-28.402 -42.467,-61.051 -48.355,-98.877c-10.421,-66.95 10.463,-123.677 57.825,-171.099c8.435,-8.444 9.519,-15.109 2.746,-26.54c-8.104,-13.678 -20.396,-23.018 -33.453,-31.494c-1.396,-0.907 -2.855,-1.743 -4.135,-2.795c-2.141,-1.757 -0.797,-2.706 0.969,-3.46c0.49,-0.841 0.804,-1.878 1.494,-2.492c11.483,-10.217 22.367,-21.076 33.669,-31.473c5.357,-4.927 10.601,-9.956 15.719,-15.108c2.029,-2.043 5.551,-2.677 6.069,-6.185" id="path26"/>
     </g>
     <g id="g28">
      <path fill="#0172b1" fill-rule="nonzero" d="m140.769501,150.990196c-0.518,3.508 -4.04,4.142 -6.069,6.185c-5.118,5.152 -10.362,10.181 -15.719,15.108c-11.302,10.397 -22.186,21.256 -33.669,31.473c-0.69,0.614 -1.004,1.651 -1.494,2.492c25.537,-5.02 50.392,-1.572 74.945,5.947c8.277,2.534 16.586,4.994 24.967,7.145c5.709,1.464 11.363,1.251 17.167,-0.749c63.423,-21.845 126.05,-19.881 187.559,7.2c25.292,11.135 47.765,26.626 67.362,46.197c0.984,0.983 1.69,2.459 3.446,2.602c0.9,-1.421 0.412,-2.941 0.415,-4.36c0.04,-19.498 0.042,-38.997 0.023,-58.496c-0.033,-33.765 -26.616,-60.7 -60.466,-60.885c-35.996,-0.195 -71.994,-0.05 -107.992,-0.051c-48.163,-0.001 -96.327,-0.002 -144.49,0.007c-1.995,0.001 -3.99,0.121 -5.985,0.185" id="path30"/>
     </g>
     <g id="g32">
      <path fill="#0180c7" fill-rule="nonzero" d="m156.288086,374.737305c15.132,0 29.254,0.087 43.375,-0.034c7.934,-0.068 12.222,-3.444 12.952,-9.693c0.924,-7.91 -3.691,-13.157 -12.26,-13.254c-16.162,-0.183 -32.327,-0.071 -48.491,-0.071c-4.666,0 -9.343,-0.163 -13.994,0.106c-5.801,0.334 -11.473,1.481 -14.247,7.466c-2.779,5.996 -0.848,11.376 2.991,16.258c15.446,19.644 30.912,39.273 46.367,58.91c0.918,1.166 1.805,2.357 2.697,3.524c-0.944,1.706 -2.442,0.942 -3.608,0.949c-10.831,0.068 -21.664,-0.01 -32.495,0.077c-2.475,0.02 -5.024,0.219 -7.406,0.843c-5.025,1.317 -8.075,5.341 -8.115,10.138c-0.04,4.806 2.919,8.877 7.931,10.29c2.368,0.668 4.928,0.9 7.402,0.91c17.83,0.072 35.661,0.068 53.492,0.009c3.15,-0.011 6.324,-0.091 9.382,-1.147c6.761,-2.335 9.737,-8.566 6.988,-15.164c-2.393,-5.746 -6.208,-10.63 -10.016,-15.477c-13.072,-16.636 -26.194,-33.234 -39.292,-49.851c-1.017,-1.29 -1.995,-2.612 -3.653,-4.789" id="path34"/>
     </g>
     <g id="g36">
      <path fill="#0180c7" fill-rule="nonzero" d="m236.939514,390.812988c0.096,-3.439 1.23,-8.064 4.206,-12.078c6.473,-8.731 19.754,-8.704 26.221,0.018c5.605,7.56 5.578,20.104 -0.033,27.656c-2.967,3.991 -6.926,6.081 -11.868,6.371c-10.962,0.645 -18.638,-7.835 -18.526,-21.967m35.349,36.56c2.435,3.065 4.852,5.953 8.969,6.792c7.857,1.601 15.306,-3.504 15.411,-11.491c0.262,-19.987 0.166,-39.981 0.046,-59.97c-0.032,-5.46 -3.395,-9.645 -8.315,-11.318c-5.156,-1.753 -10.529,-0.476 -13.973,3.872c-1.685,2.128 -2.407,2.492 -4.758,0.586c-9.107,-7.382 -19.377,-8.675 -30.479,-5.073c-17.812,5.778 -25.144,19.656 -27.077,36.653c-2.077,18.26 4.001,33.928 20.344,43.535c13.567,7.975 27.35,7.306 39.832,-3.586" id="path38"/>
     </g>
     <g id="g40">
      <path fill="#0180c7" fill-rule="nonzero" d="m366.738281,392.673798c-0.026,-5.118 1.179,-9.89 4.263,-14.037c6.321,-8.501 19.466,-8.569 25.918,-0.186c5.815,7.558 5.838,20.402 0.097,28.041c-2.993,3.983 -6.969,6.036 -11.898,6.298c-10.8,0.573 -18.334,-7.685 -18.38,-20.116m-25.146,-2.416c-0.764,25.679 16.083,44.864 40.042,45.6c25.461,0.782 44.139,-16.337 44.9,-41.295c0.77,-25.272 -14.733,-43.2 -38.642,-45.596c-25.973,-2.604 -46.674,16.321 -46.3,41.291" id="path42"/>
     </g>
     <g id="g44">
      <path fill="#0180c7" fill-rule="nonzero" d="m332.832001,410.141113c0,-15.492 0.078,-30.984 -0.03,-46.476c-0.063,-8.861 -7.881,-14.852 -16.288,-12.73c-5.05,1.275 -8.825,6.632 -8.833,12.873c-0.038,26.487 -0.017,52.973 -0.017,79.459c0,4.665 -0.064,9.33 0.017,13.993c0.133,7.686 5.027,12.676 12.382,12.749c7.597,0.075 12.693,-4.933 12.742,-12.893c0.096,-15.658 0.028,-31.317 0.027,-46.975" id="path46"/>
     </g>
     <g id="g48">
      <path fill="#fdfefe" fill-rule="nonzero" d="m236.939514,390.812988c-0.112,14.132 7.564,22.612 18.526,21.967c4.942,-0.29 8.901,-2.38 11.868,-6.371c5.611,-7.552 5.638,-20.096 0.033,-27.656c-6.467,-8.722 -19.748,-8.749 -26.221,-0.018c-2.976,4.014 -4.11,8.639 -4.206,12.078" id="path50"/>
     </g>
     <g id="g52">
      <path fill="#fdfefe" fill-rule="nonzero" d="m366.738281,392.673798c0.046,12.431 7.58,20.689 18.38,20.116c4.929,-0.262 8.905,-2.315 11.898,-6.298c5.741,-7.639 5.718,-20.483 -0.097,-28.041c-6.452,-8.383 -19.597,-8.315 -25.918,0.186c-3.084,4.147 -4.289,8.919 -4.263,14.037" id="path54"/>
     </g>
     <g id="g56">
      <path fill="none" stroke="#0180c7" stroke-width="2" stroke-miterlimit="10" d="m460.30957,218.1064c0,-35.75 -29.25,-65 -65,-65l-328.084,0c-35.75,0 -65,29.25 -65,65l0,303.041c0,35.75 29.25,65 65,65l328.084,0c35.75,0 65,-29.25 65,-65l0,-303.041z" id="path58"/>
     </g>
    </g>
   </g>
  </g>
 </g>
</svg>