<?xml version="1.0" encoding="UTF-8" standalone="no"?>
<svg
   xmlns:dc="http://purl.org/dc/elements/1.1/"
   xmlns:cc="http://creativecommons.org/ns#"
   xmlns:rdf="http://www.w3.org/1999/02/22-rdf-syntax-ns#"
   xmlns:svg="http://www.w3.org/2000/svg"
   xmlns="http://www.w3.org/2000/svg"
   viewBox="0 0 1066.6667 800"
   height="800"
   width="1066.6667"
   xml:space="preserve"
   id="svg2"
   version="1.1"><metadata
     id="metadata8"><rdf:RDF><cc:Work
         rdf:about=""><dc:format>image/svg+xml</dc:format><dc:type
           rdf:resource="http://purl.org/dc/dcmitype/StillImage" /></cc:Work></rdf:RDF></metadata><defs
     id="defs6"><clipPath
       id="clipPath18"
       clipPathUnits="userSpaceOnUse"><path
         id="path16"
         d="M 0,600 H 800 V 0 H 0 Z" /></clipPath></defs><g
     transform="matrix(1.3333333,0,0,-1.3333333,0,800)"
     id="g10"><g
       id="g12"><g
         clip-path="url(#clipPath18)"
         id="g14"><g
           transform="translate(503.083,334.3911)"
           id="g20"><path
             id="path22"
             style="fill:#fdfefe;fill-opacity:1;fill-rule:nonzero;stroke:none"
             d="m 0,0 c 0,15.658 0.068,31.317 -0.028,46.975 -0.049,7.96 -5.145,12.968 -12.742,12.893 -7.355,-0.073 -12.249,-5.063 -12.382,-12.749 -0.081,-4.663 -0.017,-9.328 -0.017,-13.993 0,-26.486 -0.021,-52.972 0.017,-79.459 0.008,-6.241 3.783,-11.598 8.833,-12.873 8.407,-2.122 16.225,3.869 16.288,12.73 C 0.077,-30.984 -0.001,-15.492 0,0 M 8.759,-19.883 C 8.386,-44.853 29.086,-63.778 55.06,-61.174 78.968,-58.778 94.472,-40.85 93.701,-15.578 92.94,9.38 74.263,26.499 48.802,25.717 24.843,24.98 7.995,5.795 8.759,-19.883 m -69.304,37.115 c -12.481,10.892 -26.265,11.561 -39.832,3.586 -16.342,-9.607 -22.42,-25.276 -20.344,-43.535 1.934,-16.997 9.266,-30.875 27.077,-36.654 11.102,-3.601 21.373,-2.308 30.479,5.074 2.352,1.906 3.073,1.542 4.759,-0.586 3.443,-4.348 8.816,-5.625 13.972,-3.872 4.92,1.672 8.284,5.858 8.316,11.318 0.119,19.989 0.216,39.982 -0.047,59.97 -0.105,7.987 -7.554,13.092 -15.41,11.491 -4.117,-0.839 -6.534,-3.727 -8.97,-6.792 m -116,-52.636 c 1.658,2.177 2.636,3.499 3.653,4.789 13.098,16.617 26.22,33.215 39.292,49.851 3.808,4.847 7.623,9.731 10.017,15.477 2.749,6.599 -0.228,12.829 -6.989,15.164 -3.058,1.056 -6.232,1.137 -9.382,1.147 -17.831,0.059 -35.662,0.063 -53.492,-0.009 -2.474,-0.01 -5.034,-0.242 -7.402,-0.91 -5.012,-1.413 -7.971,-5.484 -7.931,-10.29 0.04,-4.796 3.09,-8.82 8.115,-10.138 2.382,-0.624 4.931,-0.823 7.406,-0.843 10.831,-0.086 21.664,-0.009 32.495,-0.077 1.166,-0.007 2.664,0.758 3.608,-0.948 -0.892,-1.168 -1.779,-2.358 -2.697,-3.524 -15.455,-19.638 -30.92,-39.266 -46.367,-58.91 -3.839,-4.882 -5.77,-10.263 -2.99,-16.259 2.773,-5.985 8.445,-7.132 14.246,-7.466 4.651,-0.269 9.328,-0.106 13.994,-0.106 16.164,0 32.329,-0.112 48.491,0.071 8.569,0.097 13.185,5.344 12.26,13.255 -0.73,6.249 -5.018,9.625 -12.951,9.692 -14.122,0.121 -28.244,0.034 -43.376,0.034 m -72.47,-168.488 c -1.766,0.753 -3.109,1.702 -0.968,3.459 1.28,1.052 2.738,1.889 4.134,2.795 13.057,8.476 25.349,17.816 33.453,31.494 6.773,11.431 5.689,18.096 -2.745,26.54 -47.363,47.422 -68.246,104.149 -57.825,171.099 5.887,37.826 23.214,70.475 48.354,98.878 15.179,17.148 33.285,31.07 53.088,42.687 1.169,0.685 2.944,0.863 3.155,2.644 -0.386,0.968 -1.155,0.682 -1.747,0.682 -33.664,0.006 -67.346,0.657 -100.988,-0.207 -32.118,-0.826 -59.982,-25.733 -59.909,-61.48 0.212,-104.326 -0.002,-208.654 -0.018,-312.981 -0.005,-32.35 24.69,-59.474 56.998,-60.733 27.283,-1.063 54.643,-0.165 81.97,-0.136 1.995,-0.064 3.99,-0.183 5.985,-0.184 48.163,-0.01 96.326,-0.009 144.489,-0.008 35.998,0.001 71.996,-0.144 107.992,0.051 33.851,0.185 60.434,27.121 60.466,60.885 0.02,19.499 0.018,38.998 -0.022,58.496 -0.003,1.419 0.484,2.939 -0.415,4.36 -1.756,-0.143 -2.462,-1.618 -3.447,-2.602 -19.596,-19.571 -42.069,-35.062 -67.361,-46.197 -61.51,-27.081 -124.137,-29.045 -187.559,-7.2 -5.805,2 -11.459,2.214 -17.167,0.749 -8.382,-2.151 -16.69,-4.611 -24.967,-7.145 -24.554,-7.519 -49.408,-10.967 -74.946,-5.946" /></g><g
           transform="translate(311.0195,75.2402)"
           id="g24"><path
             id="path26"
             style="fill:#0180c7;fill-opacity:1;fill-rule:nonzero;stroke:none"
             d="m 0,0 c -27.326,-0.029 -54.686,-0.927 -81.97,0.136 -32.308,1.259 -57.002,28.383 -56.997,60.733 0.015,104.327 0.23,208.654 0.017,312.981 -0.072,35.747 27.792,60.654 59.909,61.48 33.643,0.864 67.324,0.213 100.989,0.207 0.591,0 1.36,0.286 1.747,-0.682 -0.211,-1.781 -1.987,-1.959 -3.155,-2.645 -19.804,-11.616 -37.91,-25.538 -53.088,-42.687 -25.141,-28.402 -42.467,-61.051 -48.355,-98.877 -10.421,-66.95 10.463,-123.677 57.825,-171.099 8.435,-8.444 9.519,-15.109 2.746,-26.54 -8.104,-13.678 -20.396,-23.018 -33.453,-31.494 -1.396,-0.907 -2.855,-1.743 -4.135,-2.795 -2.141,-1.757 -0.797,-2.706 0.969,-3.46 0.49,-0.841 0.804,-1.878 1.494,-2.492 C -43.974,42.549 -33.09,31.69 -21.788,21.293 -16.431,16.366 -11.187,11.337 -6.069,6.185 -4.04,4.142 -0.518,3.508 0,0" /></g><g
           transform="translate(311.0195,75.2402)"
           id="g28"><path
             id="path30"
             style="fill:#0172b1;fill-opacity:1;fill-rule:nonzero;stroke:none"
             d="m 0,0 c -0.518,3.508 -4.04,4.142 -6.069,6.185 -5.118,5.152 -10.362,10.181 -15.719,15.108 -11.302,10.397 -22.186,21.256 -33.669,31.473 -0.69,0.614 -1.004,1.651 -1.494,2.492 25.537,-5.02 50.392,-1.572 74.945,5.947 8.277,2.534 16.586,4.994 24.967,7.145 5.709,1.464 11.363,1.251 17.167,-0.749 63.423,-21.845 126.05,-19.881 187.559,7.2 25.292,11.135 47.765,26.626 67.362,46.197 0.984,0.983 1.69,2.459 3.446,2.602 0.9,-1.421 0.412,-2.941 0.415,-4.36 0.04,-19.498 0.042,-38.997 0.023,-58.496 C 318.9,26.979 292.317,0.044 258.467,-0.141 222.471,-0.336 186.473,-0.191 150.475,-0.192 102.312,-0.193 54.148,-0.194 5.985,-0.185 3.99,-0.184 1.995,-0.064 0,0" /></g><g
           transform="translate(326.5381,298.9873)"
           id="g32"><path
             id="path34"
             style="fill:#0180c7;fill-opacity:1;fill-rule:nonzero;stroke:none"
             d="m 0,0 c 15.132,0 29.254,0.087 43.375,-0.034 7.934,-0.068 12.222,-3.444 12.952,-9.693 0.924,-7.91 -3.691,-13.157 -12.26,-13.254 -16.162,-0.183 -32.327,-0.071 -48.491,-0.071 -4.666,0 -9.343,-0.163 -13.994,0.106 -5.801,0.334 -11.473,1.481 -14.247,7.466 -2.779,5.996 -0.848,11.376 2.991,16.258 15.446,19.644 30.912,39.273 46.367,58.91 0.918,1.166 1.805,2.357 2.697,3.524 -0.944,1.706 -2.442,0.942 -3.608,0.949 -10.831,0.068 -21.664,-0.01 -32.495,0.077 -2.475,0.02 -5.024,0.219 -7.406,0.843 -5.025,1.317 -8.075,5.341 -8.115,10.138 -0.04,4.806 2.919,8.877 7.931,10.29 2.368,0.668 4.928,0.9 7.402,0.91 17.83,0.072 35.661,0.068 53.492,0.009 3.15,-0.011 6.324,-0.091 9.382,-1.147 6.761,-2.335 9.737,-8.566 6.988,-15.164 C 50.568,64.371 46.753,59.487 42.945,54.64 29.873,38.004 16.751,21.406 3.653,4.789 2.636,3.499 1.658,2.177 0,0" /></g><g
           transform="translate(407.1895,315.063)"
           id="g36"><path
             id="path38"
             style="fill:#0180c7;fill-opacity:1;fill-rule:nonzero;stroke:none"
             d="m 0,0 c 0.096,-3.439 1.23,-8.064 4.206,-12.078 6.473,-8.731 19.754,-8.704 26.221,0.018 5.605,7.56 5.578,20.104 -0.033,27.656 -2.967,3.991 -6.926,6.081 -11.868,6.371 C 7.564,22.612 -0.112,14.132 0,0 m 35.349,36.56 c 2.435,3.065 4.852,5.953 8.969,6.792 7.857,1.601 15.306,-3.504 15.411,-11.491 0.262,-19.987 0.166,-39.981 0.046,-59.97 -0.032,-5.46 -3.395,-9.645 -8.315,-11.318 -5.156,-1.753 -10.529,-0.476 -13.973,3.872 -1.685,2.128 -2.407,2.492 -4.758,0.586 -9.107,-7.382 -19.377,-8.675 -30.479,-5.073 -17.812,5.778 -25.144,19.656 -27.077,36.653 -2.077,18.26 4.001,33.928 20.344,43.535 13.567,7.975 27.35,7.306 39.832,-3.586" /></g><g
           transform="translate(536.9883,316.9238)"
           id="g40"><path
             id="path42"
             style="fill:#0180c7;fill-opacity:1;fill-rule:nonzero;stroke:none"
             d="m 0,0 c -0.026,-5.118 1.179,-9.89 4.263,-14.037 6.321,-8.501 19.466,-8.569 25.918,-0.186 5.815,7.558 5.838,20.402 0.097,28.041 -2.993,3.983 -6.969,6.036 -11.898,6.298 C 7.58,20.689 0.046,12.431 0,0 m -25.146,-2.416 c -0.764,25.679 16.083,44.864 40.042,45.6 25.461,0.782 44.139,-16.337 44.9,-41.295 0.77,-25.272 -14.733,-43.2 -38.642,-45.596 -25.973,-2.604 -46.674,16.321 -46.3,41.291" /></g><g
           transform="translate(503.082,334.3911)"
           id="g44"><path
             id="path46"
             style="fill:#0180c7;fill-opacity:1;fill-rule:nonzero;stroke:none"
             d="m 0,0 c 0,-15.492 0.078,-30.984 -0.03,-46.476 -0.063,-8.861 -7.881,-14.852 -16.288,-12.73 -5.05,1.275 -8.825,6.632 -8.833,12.873 -0.038,26.487 -0.017,52.973 -0.017,79.459 0,4.665 -0.064,9.33 0.017,13.993 0.133,7.686 5.027,12.676 12.382,12.749 7.597,0.075 12.693,-4.933 12.742,-12.893 C 0.069,31.317 0.001,15.658 0,0" /></g><g
           transform="translate(407.1895,315.063)"
           id="g48"><path
             id="path50"
             style="fill:#fdfefe;fill-opacity:1;fill-rule:nonzero;stroke:none"
             d="m 0,0 c -0.112,14.132 7.564,22.612 18.526,21.967 4.942,-0.29 8.901,-2.38 11.868,-6.371 C 36.005,8.044 36.032,-4.5 30.427,-12.06 23.96,-20.782 10.679,-20.809 4.206,-12.078 1.23,-8.064 0.096,-3.439 0,0" /></g><g
           transform="translate(536.9883,316.9238)"
           id="g52"><path
             id="path54"
             style="fill:#fdfefe;fill-opacity:1;fill-rule:nonzero;stroke:none"
             d="m 0,0 c 0.046,12.431 7.58,20.689 18.38,20.116 4.929,-0.262 8.905,-2.315 11.898,-6.298 5.741,-7.639 5.718,-20.483 -0.097,-28.041 -6.452,-8.383 -19.597,-8.315 -25.918,0.186 C 1.179,-9.89 -0.026,-5.118 0,0" /></g><g
           transform="translate(630.5596,142.3564)"
           id="g56"><path
             id="path58"
             style="fill:none;stroke:#0180c7;stroke-width:2;stroke-linecap:butt;stroke-linejoin:miter;stroke-miterlimit:10;stroke-dasharray:none;stroke-opacity:1"
             d="m 0,0 c 0,-35.75 -29.25,-65 -65,-65 h -328.084 c -35.75,0 -65,29.25 -65,65 v 303.041 c 0,35.75 29.25,65 65,65 H -65 c 35.75,0 65,-29.25 65,-65 z" /></g></g></g></g></svg>